<svg width="326" height="90" fill="none" xmlns="http://www.w3.org/2000/svg"><path d="M324.939 7.3c.323 1.388-.307 3.08-2.083 5.084-1.762 1.99-4.565 4.186-8.334 6.547-7.531 4.717-18.812 10.02-33.017 15.58-28.403 11.115-68.416 23.22-113.304 33.675C123.314 78.641 82.07 85.462 51.679 88.041c-15.2 1.29-27.663 1.516-36.504.612-4.424-.452-7.91-1.184-10.37-2.19-2.478-1.015-3.79-2.253-4.113-3.64-.324-1.388.307-3.079 2.082-5.084 1.762-1.99 4.565-4.186 8.334-6.546 7.532-4.717 18.813-10.021 33.018-15.58 28.403-11.116 68.415-23.221 113.303-33.676C202.317 11.482 243.56 4.66 273.952 2.083c15.199-1.29 27.663-1.516 36.504-.613 4.423.453 7.909 1.185 10.369 2.191 2.478 1.014 3.791 2.252 4.114 3.64z" stroke="#FAFAFA" stroke-opacity=".65"/></svg>