<svg width="61" height="61" fill="none" xmlns="http://www.w3.org/2000/svg"><path d="M51.469 22.875A20.97 20.97 0 1017.156 39.03v18.157a1.883 1.883 0 00.906 1.62 1.905 1.905 0 001.858.096L30.5 53.59l10.58 5.314c.27.12.562.184.858.19a1.906 1.906 0 001.906-1.906V39.03a20.92 20.92 0 007.625-16.155zm-38.125 0A17.156 17.156 0 1130.5 40.03a17.18 17.18 0 01-17.156-17.156zM40.03 54.114l-8.673-4.36a1.978 1.978 0 00-1.716 0l-8.673 4.36V41.556a20.992 20.992 0 0019.062 0v12.558zM30.5 36.219a13.344 13.344 0 100-26.689 13.344 13.344 0 000 26.689zm0-22.875a9.531 9.531 0 11-9.531 9.53 9.555 9.555 0 019.531-9.53z" fill="#CA2407"/></svg>