<svg width="15" height="14" fill="none" xmlns="http://www.w3.org/2000/svg"><path d="M4.966 9.38v-1h-1v1h1zm0 1.14h-1v1h1v-1zm4.4 0h1v-1h-1v1zm0 1.4v1h1v-1h-1zm-4.4 0v-1h-1v1h1zm0 2.08v1h1v-1h-1zm-2.6 0h-1v1h1v-1zm0-2.08h1v-1h-1v1zm-2 0h-1v1h1v-1zm0-1.4v-1h-1v1h1zm2 0v1h1v-1h-1zm0-10.52v-1h-1v1h1zm10.12 1.2l-.61.793.005.003.605-.796zm0 6.98l-.605-.796-.005.003.61.793zm-1.9-5.32l-.61.793.007.005.006.004.597-.802zm-5.62-.66v-1h-1v1h1zm0 5.08h-1v1h1v-1zm5.6-.66l.608.793.003-.002-.611-.791zm-6.6 2.76v1.14h2V9.38h-2zm1 2.14h4.4v-2h-4.4v2zm3.4-1v1.4h2v-1.4h-2zm1 .4h-4.4v2h4.4v-2zm-5.4 1V14h2v-2.08h-2zm1 1.08h-2.6v2h2.6v-2zm-1.6 1v-2.08h-2V14h2zm-1-3.08h-2v2h2v-2zm-1 1v-1.4h-2v1.4h2zm-1-.4h2v-2h-2v2zm3-1V0h-2v10.52h2zm-1-9.52h5.76v-2h-5.76v2zm5.76 0c1.736 0 2.945.374 3.75.993l1.22-1.586C11.82-.573 10.121-1 8.125-1v2zm3.755.996c.762.58 1.185 1.427 1.185 2.704h2c0-1.79-.632-3.276-1.976-4.296l-1.21 1.592zM13.066 4.7c0 1.26-.42 2.103-1.185 2.684l1.21 1.592c1.341-1.019 1.975-2.496 1.975-4.276h-2zm-1.19 2.687c-.805.62-2.014.993-3.75.993v2c1.996 0 3.694-.426 4.97-1.407l-1.22-1.586zm-3.75.993h-3.16v2h3.16v-2zm4.32-3.66c0-1.08-.399-2.019-1.263-2.662L9.989 3.662c.282.21.457.51.457 1.058h2zm-1.252-2.653C10.38 1.44 9.302 1.2 8.106 1.2v2c.963 0 1.54.2 1.87.453l1.218-1.586zM8.106 1.2h-3.14v2h3.14v-2zm-4.14 1v5.08h2V2.2h-2zm1 6.08h3.14v-2h-3.14v2zm3.14 0c1.186 0 2.255-.242 3.068-.867L9.957 5.827c-.333.255-.904.453-1.851.453v2zm3.071-.869c.858-.663 1.269-1.602 1.269-2.691h-2c0 .538-.176.865-.492 1.109l1.223 1.582z" fill="#8E8E8E"/></svg>