<svg width="290" height="290" fill="none" xmlns="http://www.w3.org/2000/svg"><path d="M134.971 35.788l-5.667.599-.241-2.287 5.666-.599c1.098-.115 1.968-.384 2.611-.806.643-.421 1.087-.959 1.332-1.613.255-.656.34-1.381.256-2.178a4.558 4.558 0 00-.697-2.003c-.379-.608-.929-1.07-1.649-1.387-.722-.327-1.632-.432-2.729-.316l-5.012.529 1.997 18.909-2.812.296-2.239-21.21 7.823-.826c1.602-.169 2.986-.035 4.152.401 1.165.437 2.086 1.116 2.763 2.036.675.91 1.079 1.992 1.212 3.245.143 1.36-.021 2.55-.492 3.573-.472 1.021-1.234 1.843-2.288 2.465-1.055.612-2.384 1.003-3.986 1.172zm30.143-9.798l-10.141 18.025-2.847-.472L163.63 23.83l1.836.304-.352 1.857zm2.663 20.145l-3.805-20.333.265-1.872 1.836.304 4.565 22.375-2.861-.474zm.928-7.85l-.378 2.284-11.821-1.958.378-2.283 11.821 1.957zm26.486 10.955l2.553 1.182c-.699 1.161-1.556 2.094-2.57 2.797-1.014.704-2.171 1.1-3.47 1.187-1.296.079-2.719-.24-4.27-.959-1.134-.525-2.069-1.215-2.802-2.07a7.571 7.571 0 01-1.543-2.91c-.3-1.096-.377-2.278-.232-3.545.158-1.272.551-2.586 1.178-3.942l.892-1.928c.627-1.356 1.373-2.501 2.236-3.436.876-.94 1.833-1.648 2.871-2.126a7.651 7.651 0 013.303-.683c1.154.017 2.329.303 3.525.857 1.463.676 2.572 1.523 3.328 2.54a6.503 6.503 0 011.295 3.376c.12 1.228-.048 2.511-.506 3.849l-2.552-1.181c.294-.962.422-1.844.385-2.646a3.96 3.96 0 00-.735-2.18c-.456-.642-1.185-1.194-2.187-1.658-.859-.398-1.693-.584-2.501-.56a5.047 5.047 0 00-2.281.64c-.713.401-1.375.972-1.986 1.711-.611.74-1.155 1.623-1.63 2.652l-.905 1.954a12.905 12.905 0 00-.943 2.807c-.182.928-.215 1.8-.098 2.618.116.818.405 1.555.866 2.209.466.646 1.128 1.167 1.988 1.565 1.09.505 2.038.734 2.845.687a3.74 3.74 0 002.152-.812c.636-.491 1.234-1.156 1.794-1.994zm23.584 16.83l2.146 1.818c-.983.933-2.056 1.604-3.221 2.013-1.165.408-2.385.482-3.661.22-1.27-.268-2.557-.955-3.861-2.06-.954-.807-1.671-1.721-2.15-2.742a7.593 7.593 0 01-.714-3.215c.003-1.136.243-2.296.72-3.479.491-1.184 1.219-2.346 2.184-3.486l1.373-1.621c.966-1.14 1.989-2.046 3.069-2.718 1.095-.673 2.206-1.1 3.334-1.284a7.646 7.646 0 013.365.22c1.108.323 2.165.911 3.171 1.763 1.23 1.041 2.074 2.153 2.532 3.334a6.504 6.504 0 01.35 3.599c-.211 1.216-.715 2.408-1.512 3.575l-2.146-1.817c.539-.848.898-1.665 1.075-2.448a3.96 3.96 0 00-.128-2.297c-.269-.74-.825-1.467-1.667-2.18-.723-.612-1.477-1.014-2.262-1.205a5.044 5.044 0 00-2.369.01c-.794.197-1.584.57-2.37 1.121-.786.55-1.545 1.258-2.277 2.122l-1.391 1.643a12.85 12.85 0 00-1.657 2.456c-.422.845-.685 1.678-.791 2.497a5.011 5.011 0 00.248 2.36c.277.746.776 1.425 1.499 2.037.917.777 1.77 1.25 2.561 1.42.79.17 1.553.1 2.289-.21.744-.305 1.498-.787 2.261-1.446zm17.324 18.317l-3.212-4.707 1.899-1.296 3.213 4.707c.622.91 1.271 1.55 1.946 1.916.676.367 1.36.503 2.053.409.697-.086 1.377-.355 2.038-.807a4.56 4.56 0 001.434-1.563c.356-.622.503-1.325.44-2.11-.054-.79-.393-1.64-1.015-2.552l-2.84-4.162L226.35 84.94l-1.594-2.335 17.617-12.023 4.434 6.497c.908 1.33 1.446 2.613 1.614 3.846.168 1.234.007 2.366-.483 3.398-.482 1.027-1.243 1.895-2.284 2.605-1.129.77-2.255 1.19-3.379 1.26-1.123.069-2.208-.213-3.255-.847-1.039-.638-2.013-1.623-2.921-2.954zm18.064 32.76l-1.276.436c-1.515.519-2.938.794-4.269.826-1.331.032-2.538-.164-3.622-.588a7.481 7.481 0 01-2.804-1.905c-.782-.837-1.383-1.87-1.803-3.099-.408-1.191-.561-2.362-.458-3.512a7.806 7.806 0 011.044-3.237c.595-1.008 1.424-1.916 2.49-2.725 1.065-.808 2.355-1.471 3.871-1.99l1.275-.436c1.515-.518 2.935-.787 4.26-.807 1.337-.013 2.549.196 3.637.63a7.586 7.586 0 012.817 1.9c.785.846 1.381 1.865 1.789 3.057.42 1.229.578 2.414.473 3.554a7.433 7.433 0 01-1.064 3.228c-.594 1.008-1.427 1.907-2.499 2.697-1.059.796-2.346 1.453-3.861 1.971zm-2.181-2.211l1.303-.445c1.201-.411 2.221-.9 3.06-1.465.841-.556 1.496-1.178 1.963-1.864a4.87 4.87 0 00.835-2.221c.093-.785-.008-1.607-.302-2.466-.284-.832-.704-1.53-1.258-2.094a5.07 5.07 0 00-2.015-1.23c-.79-.256-1.691-.356-2.703-.298-1.013.057-2.12.291-3.321.702l-1.303.446c-1.21.414-2.238.91-3.083 1.488-.835.575-1.489 1.211-1.963 1.91a5.194 5.194 0 00-.835 2.221c-.092.785.004 1.593.288 2.425.297.868.723 1.584 1.277 2.148.554.564 1.224.97 2.011 1.217.799.253 1.701.342 2.707.266 1.016-.079 2.128-.326 3.339-.74zm14.546 15.085l.17 2.822-6.653.402c-1.101.066-1.954.279-2.559.639a2.693 2.693 0 00-1.227 1.541c-.214.669-.292 1.49-.233 2.465.035.585.094 1.149.175 1.692a20.234 20.234 0 00.718 3.141c.158.509.325 1.008.502 1.496l-2.311.139c-.175-.468-.34-.938-.496-1.408-.155-.46-.291-.941-.41-1.443a18.077 18.077 0 01-.301-1.596 21.749 21.749 0 01-.187-1.881c-.091-1.502.045-2.806.409-3.914.374-1.099 1.026-1.965 1.956-2.598.931-.634 2.195-.999 3.794-1.095l6.653-.402zm.778 12.882l.17 2.822-21.289 1.285-.171-2.822 21.29-1.285zm-1.903 23.08l-20.864-4.425.586-2.765 20.865 4.424-.587 2.766zm-2.726 12.853l-9.557-11.49 1.039-4.901 2.384.057-.781 3.682 7.642 9.228-.727 3.424zm-20.274-7.204l11.406-5.772 2.094 2.061-14.217 7.093.717-3.382zm9.118 29.035l-14.008-15.214 1.328-2.562 15.194 17.033-.857 1.652-1.657-.909zm-19.981-3.692l20.514 2.665 1.697.83-.856 1.652-22.69-2.572 1.335-2.575zm7.178 3.309l-2.055-1.065 5.515-10.639 2.055 1.066-5.515 10.638zm-25.823 46.325l-1.389-1.851 8.225-6.172-11.412-15.208 2.25-1.688 12.801 17.059-10.475 7.86zm3.539-13.515l-4.652 3.49c-1.25.938-2.462 1.518-3.638 1.741-1.17.231-2.259.138-3.267-.277-1.008-.416-1.89-1.128-2.646-2.135-.562-.75-.953-1.531-1.172-2.344a5.632 5.632 0 01-.1-2.452c.152-.822.493-1.628 1.024-2.417.537-.782 1.274-1.524 2.212-2.227l6.374-4.783 12.801 17.059-2.262 1.697-11.42-15.22-4.113 3.086c-.836.627-1.397 1.287-1.684 1.978-.289.705-.367 1.399-.234 2.08.133.682.414 1.308.841 1.878.428.57.942 1.003 1.542 1.297.599.295 1.266.387 2.001.275.732-.098 1.516-.46 2.352-1.087l4.652-3.491 1.389 1.852zm-40.766 10.511l-.841-2.14 10.511-4.131.841 2.14-10.511 4.131zm16.94 13.788l-7.802-19.85 2.631-1.035 7.802 19.85-2.631 1.035zm-11.943-5.159l-.842-2.141 9.121-3.584.841 2.14-9.12 3.585zm2.099 9.027l-.846-2.154 10.375-4.077.846 2.154-10.375 4.077zm-26.321-5.907l2.52-.266.189 1.792-2.418.255c-1.069.113-1.917.355-2.546.726-.628.37-1.065.839-1.309 1.405-.245.566-.331 1.198-.257 1.897.071.671.301 1.265.689 1.784.39.528.947.921 1.671 1.178.726.268 1.632.344 2.72.229.816-.086 1.538-.32 2.165-.7.629-.371 1.109-.849 1.44-1.434.332-.575.461-1.212.387-1.911l2.812-.297c.095.903-.009 1.734-.312 2.493a5.524 5.524 0 01-1.363 2.014 7.218 7.218 0 01-2.163 1.422 9.33 9.33 0 01-2.724.7c-1.137.12-2.18.097-3.13-.067-.949-.155-1.781-.451-2.495-.886a5.023 5.023 0 01-1.713-1.719c-.429-.711-.695-1.562-.8-2.552a4.345 4.345 0 01.293-2.108 5.23 5.23 0 011.278-1.844c.58-.552 1.297-1.016 2.151-1.391.856-.365 1.827-.605 2.915-.72zm2.651.972l-2.521.267c-1.194.126-2.27.117-3.228-.028-.958-.144-1.782-.416-2.473-.814a4.576 4.576 0 01-1.639-1.58c-.412-.644-.665-1.408-.758-2.291-.104-.991-.003-1.89.304-2.699a5.52 5.52 0 011.411-2.122c.643-.608 1.431-1.099 2.364-1.472.923-.373 1.952-.619 3.089-.739a10.799 10.799 0 012.746.063c.91.15 1.75.434 2.521.854a5.81 5.81 0 011.936 1.74c.51.732.822 1.641.936 2.729l-2.811.297a3.511 3.511 0 00-.789-1.891c-.461-.55-1.06-.968-1.797-1.253-.736-.276-1.57-.365-2.502-.267-1.069.113-1.954.374-2.658.782-.712.419-1.231.94-1.558 1.564a3.511 3.511 0 00-.386 2.059c.068.65.235 1.202.498 1.656.256.464.604.829 1.044 1.097.431.269.956.444 1.573.526.609.093 1.307.098 2.093.015l2.418-.255.187 1.762z" fill="#DD3838"/><path d="M96.067 257.184l7.185-20.082 2.648.948-6.406 17.902 9.903 3.543 6.405-17.902 2.662.953-7.185 20.081-15.212-5.443zm-16.762-32.28l1.322-1.881 9.239 6.496-1.323 1.881-9.239-6.496zm-2.175 21.733l12.269-17.446 2.312 1.626-12.269 17.446-2.312-1.626zm-2.274-12.81l1.323-1.881 8.016 5.637-1.323 1.882-8.016-5.638zm-6.377 6.726l1.331-1.893 9.119 6.412-1.332 1.893-9.118-6.412zm-9.074-27.57l3.62 4.4-1.775 1.462-3.62-4.4c-.702-.852-1.406-1.43-2.112-1.735-.706-.304-1.399-.378-2.08-.223-.688.149-1.34.477-1.959.986a4.564 4.564 0 00-1.287 1.686c-.3.651-.382 1.364-.25 2.14.126.783.539 1.6 1.24 2.452l3.202 3.891 14.681-12.083 1.797 2.183-16.468 13.553-4.999-6.073c-1.024-1.244-1.675-2.473-1.952-3.686-.278-1.214-.22-2.356.176-3.428.388-1.065 1.069-1.998 2.041-2.799 1.056-.869 2.14-1.388 3.253-1.557 1.112-.17 2.218.014 3.318.551 1.092.543 2.15 1.436 3.174 2.68zm-11.947-33.054l2.1-.936 4.6 10.315-2.101.936-4.599-10.315zM34.444 197.47l19.48-8.684 1.152 2.582-19.48 8.684-1.152-2.582zm4.618-12.162l2.1-.937 3.99 8.951-2.1.936-3.99-8.95zm-8.924 2.503l2.114-.943 4.539 10.182-2.114.942-4.539-10.181zm-7.435-32.769l21.088-3.189.421 2.781-18.8 2.842 1.573 10.4 18.8-2.843.422 2.795-21.088 3.189-2.416-15.975zm1.361-30.399l2.298.275-1.16 9.687-2.298-.275 1.16-9.687zm.289-2.414l21.177 2.536-.337 2.807-21.176-2.536.336-2.807zm-1.564 13.061l.334-2.793 10.313 1.722c1.485.247 2.804.523 3.958.828 1.145.295 2.131.639 2.96 1.033.818.393 1.48.856 1.987 1.389a4.32 4.32 0 011.03 1.865c.192.701.231 1.522.119 2.463l-.09.756-2.284-.273.026-.587c.026-.548-.04-1.028-.197-1.44a2.732 2.732 0 00-.84-1.119c-.392-.332-.918-.626-1.575-.882-.658-.256-1.471-.491-2.439-.705a56.013 56.013 0 00-3.432-.662l-9.87-1.595zM33.62 98.554l15.315 13.898-1.093 2.67-16.66-15.603.705-1.721 1.732.756zm20.23 1.886l-20.67-.815-1.765-.675.705-1.722 22.83.528-1.1 2.684zm-7.445-2.652l2.142.877-4.539 11.09-2.142-.877 4.539-11.09zm2.511-28.968l16.878 13.038-1.702 2.203-16.878-13.04 1.702-2.202zm4.19-5.426l1.832 1.415L44.863 77.85l-1.831-1.415 10.075-13.04z" fill="#262626"/><path d="M70.08 58.753l4.652-3.49c1.25-.938 2.463-1.518 3.638-1.741 1.17-.231 2.259-.139 3.267.277 1.008.416 1.89 1.128 2.646 2.135.563.75.953 1.531 1.172 2.344.213.804.247 1.622.1 2.452-.152.822-.493 1.628-1.024 2.417-.537.781-1.274 1.524-2.212 2.227l-6.373 4.783-12.801-17.06 2.26-1.696 11.422 15.22 4.112-3.086c.836-.627 1.397-1.287 1.684-1.978.29-.705.367-1.399.234-2.08a4.543 4.543 0 00-.841-1.878 4.268 4.268 0 00-1.542-1.298c-.6-.294-1.266-.386-2-.275-.733.098-1.517.46-2.353 1.088l-4.651 3.49-1.39-1.85zm9.55-18.026l12.8 17.06-2.26 1.697-12.802-17.06 2.262-1.697z" fill="#000"/></svg>