<svg width="242" height="66" fill="none" xmlns="http://www.w3.org/2000/svg"><path d="M33.16 15.18v.8c-.907.027-1.6.133-2.08.32-.453.16-.76.48-.92.96-.16.453-.24 1.173-.24 2.16v19.84c0 .96.08 1.68.24 2.16.16.48.467.8.92.96.48.16 1.173.267 2.08.32v.8a27.655 27.655 0 00-2.32-.08 99.55 99.55 0 00-5.68 0c-.907 0-1.64.027-2.2.08v-.8c.907-.053 1.587-.16 2.04-.32.48-.16.8-.48.96-.96.16-.48.24-1.2.24-2.16v-22l.16.12-9.8 26.32h-.64L5.84 17.74v21.12c0 .96.08 1.72.24 2.28.187.533.533.92 1.04 1.16.533.213 1.32.347 2.36.4v.8a17.73 17.73 0 00-1.88-.08 63.894 63.894 0 00-2.2-.04c-.667 0-1.347.013-2.04.04-.667 0-1.227.027-1.68.08v-.8c.907-.053 1.587-.187 2.04-.4.48-.24.8-.627.96-1.16.16-.56.24-1.32.24-2.28V19.42c0-.987-.08-1.707-.24-2.16-.16-.48-.48-.8-.96-.96-.453-.187-1.133-.293-2.04-.32v-.8c.453.027 1.013.053 1.68.08.693.027 1.373.04 2.04.04.587 0 1.187-.013 1.8-.04a79.63 79.63 0 001.6-.08l9.08 23.92-.68.32 9-24.12h1.88c.933 0 1.853-.013 2.76-.04.933-.027 1.707-.053 2.32-.08zm14.604-.2l9.76 25.16c.4 1.013.853 1.693 1.36 2.04.506.32.973.493 1.4.52v.8a20.191 20.191 0 00-1.96-.08 67.235 67.235 0 00-2.32-.04c-1.04 0-2.014.013-2.92.04-.907 0-1.64.027-2.2.08v-.8c1.36-.053 2.226-.28 2.6-.68.373-.427.293-1.32-.24-2.68l-7.44-19.88.64-.52-6.96 18.08c-.427 1.067-.68 1.973-.76 2.72-.08.72-.014 1.293.2 1.72.24.427.626.733 1.16.92.56.187 1.253.293 2.08.32v.8a33.195 33.195 0 00-2.36-.08c-.8-.027-1.547-.04-2.24-.04-.667 0-1.24.013-1.72.04-.454 0-.88.027-1.28.08v-.8c.533-.133 1.08-.44 1.64-.92.56-.507 1.066-1.36 1.52-2.56l9.4-24.24h.64zm4.88 17v.8h-11.92l.4-.8h11.52zm33.414-16.8v.8c-.907.027-1.6.16-2.08.4-.453.24-.76.627-.92 1.16-.16.533-.24 1.293-.24 2.28V43.7h-.92l-16.8-25.96v21.12c0 .96.08 1.72.24 2.28.187.533.533.92 1.04 1.16.533.213 1.32.347 2.36.4v.8a17.73 17.73 0 00-1.88-.08 63.894 63.894 0 00-2.2-.04c-.667 0-1.347.013-2.04.04-.667 0-1.227.027-1.68.08v-.8c.906-.053 1.587-.187 2.04-.4.48-.24.8-.627.96-1.16.16-.56.24-1.32.24-2.28V19.42c0-.987-.08-1.707-.24-2.16-.16-.48-.48-.8-.96-.96-.453-.187-1.134-.293-2.04-.32v-.8c.453.027 1.013.053 1.68.08.693.027 1.373.04 2.04.04.587 0 1.147-.013 1.68-.04.533-.027 1.013-.053 1.44-.08l14.12 21.76V19.82c0-.987-.093-1.747-.28-2.28-.16-.533-.507-.92-1.04-1.16-.507-.24-1.28-.373-2.32-.4v-.8c.48.027 1.107.053 1.88.08.8.027 1.533.04 2.2.04.693 0 1.373-.013 2.04-.04a73.313 73.313 0 001.68-.08zM105.9 43.5v-.8c.907-.053 1.587-.16 2.04-.32.48-.16.8-.48.96-.96.16-.48.24-1.2.24-2.16V19.42c0-.987-.08-1.707-.24-2.16-.16-.48-.48-.8-.96-.96-.453-.187-1.133-.293-2.04-.32v-.8c.613.027 1.387.053 2.32.08a99.565 99.565 0 005.68 0c.907-.027 1.64-.053 2.2-.08v.8c-.907.027-1.6.133-2.08.32-.453.16-.76.48-.92.96-.16.453-.24 1.173-.24 2.16v19.84c0 .96.08 1.68.24 2.16.16.48.467.8.92.96.48.16 1.173.267 2.08.32v.8c-.56-.053-1.293-.08-2.2-.08a99.565 99.565 0 00-5.68 0c-.933 0-1.707.027-2.32.08zm-16.72 0v-.8c.907-.053 1.587-.16 2.04-.32.48-.16.8-.48.96-.96.16-.48.24-1.2.24-2.16V19.42c0-.987-.08-1.707-.24-2.16-.16-.48-.48-.8-.96-.96-.453-.187-1.133-.293-2.04-.32v-.8c.56.027 1.293.053 2.2.08a99.55 99.55 0 005.68 0c.933-.027 1.707-.053 2.32-.08v.8c-.907.027-1.6.133-2.08.32-.453.16-.76.48-.92.96-.16.453-.24 1.173-.24 2.16v19.84c0 .96.08 1.68.24 2.16.16.48.467.8.92.96.48.16 1.173.267 2.08.32v.8a27.655 27.655 0 00-2.32-.08 99.55 99.55 0 00-5.68 0c-.907 0-1.64.027-2.2.08zm5.56-13.84v-.8h15.8v.8h-15.8zm35.953-14.68l9.76 25.16c.4 1.013.854 1.693 1.36 2.04.507.32.974.493 1.4.52v.8a20.175 20.175 0 00-1.96-.08 67.188 67.188 0 00-2.32-.04c-1.04 0-2.013.013-2.92.04-.906 0-1.64.027-2.2.08v-.8c1.36-.053 2.227-.28 2.6-.68.374-.427.294-1.32-.24-2.68l-7.44-19.88.64-.52-6.96 18.08c-.426 1.067-.68 1.973-.76 2.72-.08.72-.013 1.293.2 1.72.24.427.627.733 1.16.92.56.187 1.254.293 2.08.32v.8a33.172 33.172 0 00-2.36-.08c-.8-.027-1.546-.04-2.24-.04-.666 0-1.24.013-1.72.04-.453 0-.88.027-1.28.08v-.8c.534-.133 1.08-.44 1.64-.92.56-.507 1.067-1.36 1.52-2.56l9.4-24.24h.64zm4.88 17v.8h-11.92l.4-.8h11.52zm29.084-16.8c-.107 1.013-.187 2-.24 2.96a79.68 79.68 0 00-.04 2.16c0 .64.013 1.24.04 1.8.026.56.053 1.053.08 1.48h-.92c-.187-1.867-.44-3.333-.76-4.4-.32-1.093-.88-1.88-1.68-2.36-.8-.48-2.04-.72-3.72-.72h-2.16v22.76c0 1.067.093 1.867.28 2.4.213.533.613.893 1.2 1.08.586.187 1.44.307 2.56.36v.8a35.642 35.642 0 00-2.64-.08 136.189 136.189 0 00-6.64 0c-1.04 0-1.88.027-2.52.08v-.8c1.12-.053 1.973-.173 2.56-.36.586-.187.973-.547 1.16-1.08.213-.533.32-1.333.32-2.4V16.1h-2.16c-1.654 0-2.894.24-3.72.72-.8.48-1.36 1.267-1.68 2.36-.32 1.067-.574 2.533-.76 4.4h-.92c.053-.427.08-.92.08-1.48.026-.56.04-1.16.04-1.8 0-.507-.027-1.227-.08-2.16a39.006 39.006 0 00-.2-2.96c1.12.027 2.333.053 3.64.08 1.333.027 2.666.04 4 .04h7.24c1.333 0 2.666-.013 4-.04 1.333-.027 2.546-.053 3.64-.08zm24.843 0c-.106 1.013-.186 2-.24 2.96-.026.933-.04 1.653-.04 2.16 0 .64.014 1.24.04 1.8.027.56.054 1.053.08 1.48h-.92c-.186-1.867-.44-3.333-.76-4.4-.32-1.093-.88-1.88-1.68-2.36-.8-.48-2.04-.72-3.72-.72h-2.16v22.76c0 1.067.094 1.867.28 2.4.214.533.614.893 1.2 1.08.587.187 1.44.307 2.56.36v.8a35.604 35.604 0 00-2.64-.08 136.247 136.247 0 00-6.64 0c-1.04 0-1.88.027-2.52.08v-.8c1.12-.053 1.974-.173 2.56-.36.587-.187.974-.547 1.16-1.08.214-.533.32-1.333.32-2.4V16.1h-2.16c-1.653 0-2.893.24-3.72.72-.8.48-1.36 1.267-1.68 2.36-.32 1.067-.573 2.533-.76 4.4h-.92c.054-.427.08-.92.08-1.48.027-.56.04-1.16.04-1.8 0-.507-.026-1.227-.08-2.16a37.998 37.998 0 00-.2-2.96c1.12.027 2.334.053 3.64.08 1.334.027 2.667.04 4 .04h7.24c1.334 0 2.667-.013 4-.04 1.334-.027 2.547-.053 3.64-.08zm12.209-.2l9.76 25.16c.4 1.013.853 1.693 1.36 2.04.507.32.973.493 1.4.52v.8a20.19 20.19 0 00-1.96-.08 67.231 67.231 0 00-2.32-.04c-1.04 0-2.013.013-2.92.04-.907 0-1.64.027-2.2.08v-.8c1.36-.053 2.227-.28 2.6-.68.373-.427.293-1.32-.24-2.68l-7.44-19.88.64-.52-6.96 18.08c-.427 1.067-.68 1.973-.76 2.72-.08.72-.013 1.293.2 1.72.24.427.627.733 1.16.92.56.187 1.253.293 2.08.32v.8a33.193 33.193 0 00-2.36-.08 67.42 67.42 0 00-2.24-.04c-.667 0-1.24.013-1.72.04-.453 0-.88.027-1.28.08v-.8c.533-.133 1.08-.44 1.64-.92.56-.507 1.067-1.36 1.52-2.56l9.4-24.24h.64zm4.88 17v.8h-11.92l.4-.8h11.52zm33.414-16.8v.8c-.907.027-1.6.16-2.08.4-.453.24-.76.627-.92 1.16-.16.533-.24 1.293-.24 2.28V43.7h-.92l-16.8-25.96v21.12c0 .96.08 1.72.24 2.28.187.533.533.92 1.04 1.16.533.213 1.32.347 2.36.4v.8c-.48-.053-1.107-.08-1.88-.08a63.894 63.894 0 00-2.2-.04c-.667 0-1.347.013-2.04.04-.667 0-1.227.027-1.68.08v-.8c.907-.053 1.587-.187 2.04-.4.48-.24.8-.627.96-1.16.16-.56.24-1.32.24-2.28V19.42c0-.987-.08-1.707-.24-2.16-.16-.48-.48-.8-.96-.96-.453-.187-1.133-.293-2.04-.32v-.8c.453.027 1.013.053 1.68.08.693.027 1.373.04 2.04.04.587 0 1.147-.013 1.68-.04.533-.027 1.013-.053 1.44-.08l14.12 21.76V19.82c0-.987-.093-1.747-.28-2.28-.16-.533-.507-.92-1.04-1.16-.507-.24-1.28-.373-2.32-.4v-.8c.48.027 1.107.053 1.88.08.8.027 1.533.04 2.2.04.693 0 1.373-.013 2.04-.04a73.483 73.483 0 001.68-.08zM81.63 50.88a47.42 47.42 0 001.83.045c.47 0 .92-.005 1.35-.015.43-.01.735-.015.915-.015 1.05 0 1.84.22 2.37.66.53.44.795 1.005.795 1.695 0 .35-.075.695-.225 1.035-.14.33-.38.635-.72.915-.33.27-.775.49-1.335.66v.03c.79.1 1.405.29 1.845.57.45.27.765.59.945.96.18.37.27.76.27 1.17a2.69 2.69 0 01-.435 1.515c-.28.43-.69.77-1.23 1.02s-1.185.375-1.935.375c-.22 0-.55-.005-.99-.015-.44-.02-.97-.03-1.59-.03-.35 0-.695.005-1.035.015-.34 0-.615.01-.825.03v-.3c.34-.02.595-.06.765-.12.18-.06.3-.18.36-.36s.09-.45.09-.81v-7.44c0-.37-.03-.64-.09-.81a.54.54 0 00-.36-.36c-.17-.07-.425-.11-.765-.12v-.3zm3.72.3c-.46 0-.76.085-.9.255-.14.17-.21.515-.21 1.035v7.44c0 .35.03.615.09.795.06.18.17.3.33.36s.395.09.705.09c.98 0 1.69-.225 2.13-.675.45-.46.675-1.11.675-1.95 0-.77-.21-1.365-.63-1.785-.41-.42-1.09-.63-2.04-.63h-1.545v-.255h1.29c.59 0 1.045-.11 1.365-.33.32-.23.54-.53.66-.9.12-.38.18-.785.18-1.215 0-.74-.165-1.295-.495-1.665-.32-.38-.855-.57-1.605-.57zm9.076 2.385c.88 0 1.565.27 2.055.81.5.53.75 1.36.75 2.49h-5.295l-.015-.285h3.87c.02-.49-.02-.94-.12-1.35-.1-.42-.26-.755-.48-1.005a1.025 1.025 0 00-.825-.375c-.46 0-.87.23-1.23.69-.35.46-.56 1.19-.63 2.19l.045.06c-.02.15-.035.315-.045.495-.01.18-.015.36-.015.54 0 .68.11 1.265.33 1.755.22.49.505.865.855 1.125.36.25.73.375 1.11.375.3 0 .585-.045.855-.135.27-.1.52-.26.75-.48.23-.22.43-.515.6-.885l.3.12a3.089 3.089 0 01-1.485 1.725c-.38.19-.82.285-1.32.285-.72 0-1.34-.165-1.86-.495a3.289 3.289 0 01-1.185-1.365c-.27-.59-.405-1.265-.405-2.025 0-.88.14-1.635.42-2.265.28-.64.675-1.13 1.185-1.47.51-.35 1.105-.525 1.785-.525zm10.753.045v6.27c0 .45.08.785.24 1.005.17.21.47.315.9.315v.315a9.65 9.65 0 00-.93-.045c-.29 0-.57.015-.84.045-.26.03-.5.085-.72.165v-1.77c-.25.65-.605 1.115-1.065 1.395-.45.27-.915.405-1.395.405-.35 0-.655-.05-.915-.15a1.72 1.72 0 01-.645-.42c-.19-.2-.32-.46-.39-.78a5.656 5.656 0 01-.105-1.185V55.41c0-.45-.08-.78-.24-.99-.16-.22-.46-.33-.9-.33v-.315c.32.03.63.045.93.045.29 0 .565-.015.825-.045.27-.04.515-.095.735-.165v5.895c0 .31.02.595.06.855.04.26.14.47.3.63.16.16.42.24.78.24.39 0 .735-.12 1.035-.36.31-.24.55-.565.72-.975.18-.41.27-.87.27-1.38V55.41c0-.45-.08-.78-.24-.99-.16-.22-.46-.33-.9-.33v-.315c.32.03.63.045.93.045.29 0 .565-.015.825-.045.27-.04.515-.095.735-.165zm4.32-2.325v2.505h2.22v.3h-2.22v5.805c0 .47.085.8.255.99.17.19.405.285.705.285.3 0 .56-.12.78-.36.22-.25.41-.665.57-1.245l.3.075c-.1.58-.3 1.07-.6 1.47-.29.4-.74.6-1.35.6-.34 0-.62-.045-.84-.135-.22-.08-.415-.2-.585-.36a1.928 1.928 0 01-.465-.825c-.08-.32-.12-.745-.12-1.275V54.09h-1.44v-.3h1.44v-2.295c.25-.01.49-.03.72-.06.23-.03.44-.08.63-.15zm9.863 2.49v.3a.896.896 0 00-.525.255c-.16.15-.31.415-.45.795l-2.46 6.45h-.255l-2.76-6.645c-.19-.39-.38-.625-.57-.705-.18-.09-.33-.135-.45-.135v-.315c.22.03.45.055.69.075a16.628 16.628 0 001.755-.015c.35-.02.675-.04.975-.06v.315c-.25 0-.475.02-.675.06a.41.41 0 00-.36.315c-.05.17.01.465.18.885l1.845 4.575-.09.03 1.71-4.47c.13-.33.18-.59.15-.78a.552.552 0 00-.3-.45c-.18-.1-.45-.16-.81-.18v-.3c.18.01.335.02.465.03.13 0 .255.005.375.015h.42c.23 0 .435-.005.615-.015l.525-.03zm-3.435 7.8l-.51 1.305c-.1.25-.205.46-.315.63-.1.17-.21.31-.33.42-.16.15-.35.25-.57.3a2.3 2.3 0 01-.6.09c-.19 0-.365-.035-.525-.105a.845.845 0 01-.36-.315.823.823 0 01-.135-.48c0-.24.07-.435.21-.585.14-.14.335-.21.585-.21.21 0 .39.06.54.18.15.12.225.295.225.525 0 .17-.04.31-.12.42a.862.862 0 01-.285.255c.02.01.035.015.045.015h.045c.27 0 .51-.095.72-.285.21-.18.395-.475.555-.885l.54-1.395.285.12zm10.044-8.01c.4 0 .74.065 1.02.195s.485.25.615.36c.33.27.53.09.6-.54h.345c-.02.28-.035.615-.045 1.005-.01.38-.015.895-.015 1.545h-.345c-.06-.37-.165-.73-.315-1.08-.14-.35-.35-.635-.63-.855-.28-.23-.645-.345-1.095-.345-.35 0-.645.1-.885.3-.23.19-.345.475-.345.855 0 .3.09.56.27.78.18.21.415.41.705.6.29.18.605.38.945.6.38.24.725.485 1.035.735.31.25.555.525.735.825.19.3.285.655.285 1.065 0 .46-.12.845-.36 1.155-.24.31-.555.545-.945.705-.38.16-.8.24-1.26.24-.22 0-.43-.02-.63-.06a2.68 2.68 0 01-.555-.15c-.1-.05-.205-.11-.315-.18-.1-.07-.2-.145-.3-.225-.1-.08-.19-.075-.27.015-.08.08-.14.245-.18.495h-.345c.02-.32.035-.71.045-1.17.01-.46.015-1.07.015-1.83h.345c.07.56.17 1.05.3 1.47.13.42.335.75.615.99.28.23.67.345 1.17.345.2 0 .4-.045.6-.135.21-.09.385-.24.525-.45.14-.21.21-.49.21-.84 0-.44-.16-.8-.48-1.08a9.886 9.886 0 00-1.215-.885c-.36-.23-.7-.46-1.02-.69-.31-.23-.565-.49-.765-.78-.19-.29-.285-.64-.285-1.05 0-.45.1-.815.3-1.095.21-.29.485-.5.825-.63.34-.14.705-.21 1.095-.21zm6.409.045v9.21c0 .43.125.715.375.855.26.15.615.225 1.065.225v.315l-.915-.045a48.7 48.7 0 00-1.245-.015c-.31 0-.62.005-.93.015l-.69.045V63.9c.36 0 .615-.065.765-.195.15-.13.225-.375.225-.735v-7.56c0-.45-.08-.78-.24-.99-.16-.22-.46-.33-.9-.33v-.315c.32.03.63.045.93.045.29 0 .565-.015.825-.045.27-.04.515-.095.735-.165zm2.4-.045c.53 0 1.005.145 1.425.435.42.28.75.695.99 1.245.25.55.375 1.23.375 2.04 0 .54-.065 1.075-.195 1.605-.13.52-.335.995-.615 1.425-.27.42-.625.76-1.065 1.02-.43.25-.95.375-1.56.375-.47 0-.88-.11-1.23-.33-.34-.22-.57-.485-.69-.795l.15-.21c.14.28.34.515.6.705.27.19.605.285 1.005.285.56 0 .995-.175 1.305-.525.31-.35.525-.815.645-1.395.13-.59.195-1.24.195-1.95 0-.8-.065-1.455-.195-1.965s-.325-.89-.585-1.14c-.26-.25-.58-.375-.96-.375-.49 0-.935.205-1.335.615-.4.4-.655 1.01-.765 1.83l-.18-.21c.11-.85.41-1.51.9-1.98.5-.47 1.095-.705 1.785-.705zm6.06 8.04c-.41 0-.765-.075-1.065-.225-.3-.16-.53-.38-.69-.66a2.034 2.034 0 01-.225-.975c0-.44.1-.8.3-1.08.21-.28.475-.505.795-.675.32-.17.655-.31 1.005-.42.36-.12.7-.23 1.02-.33.32-.11.58-.235.78-.375.21-.14.315-.325.315-.555v-.93c0-.42-.065-.74-.195-.96a.872.872 0 00-.495-.435c-.21-.08-.445-.12-.705-.12-.25 0-.52.035-.81.105-.28.07-.505.215-.675.435a.9.9 0 01.705.915c0 .25-.08.45-.24.6a.9.9 0 01-.615.21c-.29 0-.505-.09-.645-.27-.13-.19-.195-.4-.195-.63 0-.26.065-.47.195-.63.13-.16.295-.31.495-.45.23-.16.525-.295.885-.405.37-.12.785-.18 1.245-.18.41 0 .76.05 1.05.15.29.09.53.225.72.405.26.24.43.535.51.885.08.34.12.75.12 1.23v4.17c0 .25.035.43.105.54.08.11.2.165.36.165.11 0 .215-.025.315-.075.1-.05.22-.13.36-.24l.165.255c-.21.16-.41.295-.6.405-.19.1-.445.15-.765.15-.29 0-.53-.05-.72-.15-.19-.1-.335-.245-.435-.435-.09-.2-.135-.45-.135-.75-.27.45-.595.785-.975 1.005-.37.22-.79.33-1.26.33zm.54-.6c.33 0 .635-.095.915-.285.29-.19.55-.475.78-.855v-2.94c-.12.17-.295.315-.525.435-.23.11-.48.225-.75.345-.27.11-.53.245-.78.405-.24.15-.44.35-.6.6-.16.25-.24.575-.24.975s.105.72.315.96c.22.24.515.36.885.36zm8.551-7.44c.32 0 .63.04.93.12.3.08.57.2.81.36.23.15.405.325.525.525.12.19.18.4.18.63 0 .27-.075.48-.225.63-.15.14-.34.21-.57.21a.937.937 0 01-.585-.195c-.16-.13-.24-.315-.24-.555 0-.23.06-.415.18-.555.13-.14.28-.23.45-.27-.1-.18-.28-.33-.54-.45-.25-.12-.52-.18-.81-.18-.25 0-.5.06-.75.18s-.48.32-.69.6c-.21.27-.38.645-.51 1.125-.13.47-.195 1.06-.195 1.77 0 .88.1 1.58.3 2.1.2.52.46.895.78 1.125.33.22.69.33 1.08.33.26 0 .525-.05.795-.15.27-.1.525-.26.765-.48.24-.23.445-.535.615-.915l.285.105c-.1.32-.265.645-.495.975-.23.32-.53.585-.9.795-.37.21-.825.315-1.365.315-.62 0-1.18-.16-1.68-.48-.5-.32-.9-.775-1.2-1.365-.29-.6-.435-1.31-.435-2.13 0-.82.145-1.54.435-2.16.3-.63.715-1.12 1.245-1.47.53-.36 1.135-.54 1.815-.54zm7.19 0c.88 0 1.565.27 2.055.81.5.53.75 1.36.75 2.49h-5.295l-.015-.285h3.87c.02-.49-.02-.94-.12-1.35-.1-.42-.26-.755-.48-1.005a1.025 1.025 0 00-.825-.375c-.46 0-.87.23-1.23.69-.35.46-.56 1.19-.63 2.19l.045.06c-.02.15-.035.315-.045.495-.01.18-.015.36-.015.54 0 .68.11 1.265.33 1.755.22.49.505.865.855 1.125.36.25.73.375 1.11.375.3 0 .585-.045.855-.135.27-.1.52-.26.75-.48.23-.22.43-.515.6-.885l.3.12a3.089 3.089 0 01-1.485 1.725c-.38.19-.82.285-1.32.285-.72 0-1.34-.165-1.86-.495a3.289 3.289 0 01-1.185-1.365c-.27-.59-.405-1.265-.405-2.025 0-.88.14-1.635.42-2.265.28-.64.675-1.13 1.185-1.47.51-.35 1.105-.525 1.785-.525z" fill="#fff"/></svg>