<svg width="244" height="243" fill="none" xmlns="http://www.w3.org/2000/svg"><path d="M143.012 28.3l-.39 2.163-8.246-1.485.389-2.162 8.247 1.485zm-6.467-8.144l-2.809 15.598-2.667-.48 2.809-15.599 2.667.48zm9.847 1.773l-2.809 15.599-2.682-.483 2.809-15.599 2.682.483zm12.665 12.754l.157-.298c.533-1.011 1.173-1.871 1.922-2.58.753-.719 1.575-1.252 2.465-1.6a6.402 6.402 0 012.8-.446c.978.052 1.955.334 2.931.848.985.519 1.775 1.167 2.371 1.944a6.38 6.38 0 011.23 2.568c.225.935.254 1.916.089 2.944-.162 1.019-.508 2.034-1.041 3.045l-.157.298c-.532 1.01-1.173 1.87-1.921 2.58a7.609 7.609 0 01-2.478 1.593 6.646 6.646 0 01-2.801.446c-.964-.056-1.938-.343-2.924-.861-.985-.52-1.777-1.163-2.377-1.931a6.797 6.797 0 01-1.23-2.568 7.742 7.742 0 01-.076-2.937c.161-1.02.508-2.034 1.04-3.045zm2.555.965l-.157.298a8.8 8.8 0 00-.798 2.113 5.899 5.899 0 00-.121 2.022c.087.652.308 1.249.664 1.79.36.531.873.972 1.538 1.322.657.346 1.302.515 1.935.506a4.086 4.086 0 001.838-.472 5.89 5.89 0 001.599-1.244 8.337 8.337 0 001.304-1.847l.157-.298a8.113 8.113 0 00.771-2.093 5.7 5.7 0 00.115-2.042 4.038 4.038 0 00-.644-1.796c-.347-.536-.853-.98-1.518-1.33-.657-.345-1.309-.512-1.955-.5a4.21 4.21 0 00-1.845.486 5.882 5.882 0 00-1.606 1.257 8.532 8.532 0 00-1.277 1.828zm26.974 20.687l-3.656-3.698 1.521-1.545 2.987 3.02c.59.598 1.14 1.036 1.65 1.316.516.286.992.413 1.427.38.435-.031.826-.219 1.174-.562.27-.268.448-.56.533-.878.098-.317.1-.655.006-1.015-.088-.366-.269-.75-.543-1.153a8.208 8.208 0 00-1.059-1.28l-2.441-2.469-9.709 9.598-1.905-1.927 11.272-11.143 4.346 4.397c.707.715 1.279 1.42 1.717 2.112.445.7.738 1.379.879 2.035a3.63 3.63 0 01-.031 1.885c-.177.6-.528 1.161-1.056 1.683a3.259 3.259 0 01-2.595.938 4.678 4.678 0 01-1.572-.424c-.537-.251-1.081-.614-1.631-1.086l-1.314-.184zm-4.959 4.902l-4.346-4.396 2.511-.587 3.398 3.438c.529.535 1.034.914 1.516 1.138.489.217.944.288 1.366.215.435-.073.83-.285 1.184-.635.355-.35.568-.74.639-1.167.085-.428.019-.884-.199-1.369-.211-.491-.581-1.004-1.11-1.539l-2.894-2.927 1.563-1.504 3.614 3.657.107 1.275c.562.666.928 1.341 1.096 2.026.169.684.165 1.334-.011 1.947a3.54 3.54 0 01-.941 1.59c-.528.522-1.093.88-1.695 1.078a3.736 3.736 0 01-1.855.144c-.634-.114-1.285-.37-1.953-.767-.661-.404-1.324-.943-1.99-1.617zm18.961 22.879l7.263-3.718c.556-.285.981-.645 1.274-1.08.306-.431.458-.926.457-1.485-.001-.559-.168-1.165-.502-1.817-.311-.608-.689-1.09-1.134-1.443-.44-.345-.896-.562-1.369-.649a2.02 2.02 0 00-1.288.183l-1.235-2.412c.504-.259 1.071-.384 1.7-.377a4.926 4.926 0 011.917.434c.662.286 1.286.713 1.872 1.28.6.57 1.117 1.282 1.554 2.133.525 1.026.814 2.02.866 2.98a4.553 4.553 0 01-.63 2.659c-.464.808-1.222 1.481-2.273 2.02l-6.572 3.364c-.47.24-.949.535-1.44.885a6.608 6.608 0 00-1.175 1.079l-.209.106-1.288-2.516c.216-.264.536-.549.961-.854.434-.31.851-.568 1.251-.772zm6.355-2.727l-1.682.894-1.248-2.438a10.079 10.079 0 00-1.111-1.752c-.38-.486-.772-.855-1.176-1.11a2.577 2.577 0 00-1.249-.413c-.419-.027-.846.071-1.281.294a2.793 2.793 0 00-1.059.92 2.444 2.444 0 00-.413 1.347c0 .516.152 1.069.454 1.66.379.739.869 1.31 1.471 1.716.602.404 1.214.656 1.835.755.626.108 1.158.066 1.597-.126l-.633 1.624c-.396.126-.885.168-1.466.125a6.516 6.516 0 01-1.832-.428 6.552 6.552 0 01-1.818-1.077c-.573-.475-1.055-1.095-1.446-1.86-.49-.956-.732-1.89-.728-2.803.009-.904.224-1.717.645-2.437a4.466 4.466 0 011.825-1.675c.757-.387 1.497-.58 2.222-.578a4.328 4.328 0 012.102.537c.676.356 1.314.874 1.914 1.554.601.68 1.148 1.503 1.642 2.468l1.435 2.803zm4.82 21.953l.486 2.889-8.214-3.268-.486-2.889 8.214 3.268zm8.553.864l1.098 6.529-15.63 2.629-.45-2.673 13.464-2.264-.649-3.857c-.128-.761-.363-1.36-.704-1.798-.331-.439-.717-.736-1.159-.889a2.614 2.614 0 00-1.313-.121 2.692 2.692 0 00-1.177.51c-.351.267-.615.638-.793 1.114-.177.475-.209 1.055-.094 1.738l.824 4.898-2.196.369-.823-4.897c-.151-.896-.164-1.711-.04-2.444.124-.734.358-1.378.7-1.93a4.418 4.418 0 011.332-1.354 4.884 4.884 0 011.844-.696 4.622 4.622 0 011.958.072 4.569 4.569 0 011.711.901c.519.437.956 1.002 1.31 1.695.366.701.628 1.524.787 2.468zm-16.195 35.63l15.174 4.579-.783 2.595-13.042-3.937-2.108 6.984 13.042 3.936-.787 2.609-15.174-4.58 3.678-12.186zm-2.088 14.625l-6.557-2.255.698-2.314 4.502 1.359.597-1.977 2.131.643-1.371 4.544zm-11.817 15.843c.622-.911 1.34-1.632 2.154-2.165a6.814 6.814 0 012.616-.997 7.087 7.087 0 012.834.163c.967.246 1.91.684 2.829 1.312l.508.347c1.064.728 1.904 1.533 2.519 2.415.624.887 1.041 1.8 1.252 2.736.212.937.232 1.85.062 2.74-.17.889-.506 1.7-1.007 2.434-.64.935-1.352 1.631-2.137 2.088a5.346 5.346 0 01-2.504.755c-.87.044-1.768-.096-2.693-.421-.917-.32-1.835-.794-2.754-1.422l-1.004-.686 6.679-9.771 1.826 1.248-5.15 7.534.17.116a6.757 6.757 0 001.941.794c.686.173 1.357.16 2.015-.041.658-.201 1.249-.685 1.772-1.451a3.688 3.688 0 00.442-3.371c-.21-.593-.559-1.181-1.048-1.763-.489-.583-1.129-1.144-1.919-1.684l-.508-.347a7.131 7.131 0 00-1.927-.945 5.445 5.445 0 00-1.948-.214 4.446 4.446 0 00-1.802.56c-.564.324-1.056.793-1.475 1.405-.54.79-.836 1.57-.888 2.338a6.009 6.009 0 00.31 2.324l-2.002.619a7.546 7.546 0 01-.486-1.911c-.089-.7-.037-1.451.156-2.254.188-.794.577-1.622 1.167-2.485zm-15.113 28.448l-1.355-1.729 6.595-5.168 1.355 1.729-6.595 5.168zm10.383.592l-9.776-12.475 2.133-1.672 9.776 12.476-2.133 1.671zm-7.875 6.171l-9.776-12.475 2.145-1.681 9.776 12.476-2.145 1.68zm-30.399.384l2.86 7.641c.219.585.528 1.048.927 1.389.393.354.867.562 1.422.625.556.063 1.177-.033 1.863-.29.64-.24 1.161-.56 1.564-.961.393-.398.66-.826.801-1.286a2.02 2.02 0 00-.033-1.301l2.538-.95c.198.531.258 1.108.179 1.732a4.948 4.948 0 01-.651 1.854 6.306 6.306 0 01-1.486 1.714c-.636.53-1.402.963-2.298 1.298-1.079.404-2.099.577-3.059.52a4.567 4.567 0 01-2.57-.931c-.749-.554-1.331-1.384-1.745-2.49l-2.588-6.915a11.646 11.646 0 00-.714-1.531 6.6 6.6 0 00-.938-1.292l-.082-.219 2.648-.991c.238.245.484.596.738 1.053.258.466.466.91.624 1.331zm1.979 6.626l-.695-1.774 2.566-.96c.722-.27 1.345-.571 1.867-.902.526-.322.939-.67 1.237-1.042.299-.373.483-.77.555-1.193.074-.414.026-.849-.145-1.307a2.785 2.785 0 00-.794-1.157 2.444 2.444 0 00-1.29-.565c-.512-.059-1.079.028-1.701.261-.778.291-1.402.713-1.873 1.264-.471.552-.792 1.131-.961 1.737-.179.609-.198 1.143-.058 1.601l-1.541-.815c-.079-.408-.065-.899.044-1.471a6.507 6.507 0 01.636-1.771 6.58 6.58 0 011.278-1.683c.537-.514 1.208-.922 2.013-1.223 1.006-.376 1.963-.51 2.869-.401.897.112 1.679.419 2.346.92a4.458 4.458 0 011.455 2.005c.298.796.404 1.554.319 2.274a4.33 4.33 0 01-.774 2.026c-.431.631-1.019 1.205-1.764 1.724-.744.518-1.624.967-2.639 1.347l-2.95 1.105z" fill="#fff"/><path d="M107.839 215.55l.223-2.186 8.336.85-.223 2.186-8.336-.85zm7.071 7.627l1.607-15.768 2.696.274-1.607 15.768-2.696-.274zm-9.953-1.015l1.607-15.768 2.71.277-1.607 15.767-2.71-.276zm-14.014-11.788l-.134.309c-.453 1.049-1.026 1.955-1.718 2.72-.697.773-1.475 1.368-2.335 1.783a6.397 6.397 0 01-2.759.659c-.978.024-1.974-.183-2.987-.621-1.022-.442-1.859-1.027-2.512-1.756a6.384 6.384 0 01-1.423-2.467c-.296-.915-.4-1.891-.314-2.928.083-1.029.35-2.067.804-3.116l.134-.309c.453-1.049 1.026-1.956 1.718-2.72a7.61 7.61 0 012.349-1.778 6.635 6.635 0 012.758-.658c.966-.019 1.96.192 2.981.634 1.022.442 1.862 1.023 2.518 1.743a6.789 6.789 0 011.424 2.467c.283.92.383 1.894.3 2.922-.083 1.028-.35 2.067-.804 3.116zm-2.621-.767l.133-.309a8.747 8.747 0 00.634-2.167 5.9 5.9 0 00-.034-2.026 4.23 4.23 0 00-.798-1.734c-.4-.502-.945-.903-1.635-1.201-.681-.295-1.338-.413-1.969-.356a4.098 4.098 0 00-1.796.611c-.554.346-1.054.8-1.5 1.363a8.34 8.34 0 00-1.157 1.941l-.134.309a8.123 8.123 0 00-.609 2.147 5.696 5.696 0 00.042 2.045 4.04 4.04 0 00.78 1.741c.386.508.925.911 1.615 1.209.681.295 1.344.411 1.987.349a4.226 4.226 0 001.803-.625 5.886 5.886 0 001.505-1.377 8.516 8.516 0 001.133-1.92zm-28.479-18.562l3.928 3.408-1.399 1.657-3.209-2.784c-.634-.55-1.216-.945-1.745-1.184-.537-.246-1.021-.336-1.453-.271-.431.065-.807.282-1.127.651-.25.288-.404.593-.464.916a1.81 1.81 0 00.072 1.012c.115.359.325.728.629 1.108.29.381.674.78 1.154 1.196l2.623 2.274 8.946-10.312 2.047 1.775-10.386 11.973-4.67-4.051c-.76-.659-1.384-1.317-1.874-1.975-.497-.663-.841-1.317-1.032-1.962a3.625 3.625 0 01-.113-1.881c.13-.612.438-1.198.924-1.759a3.266 3.266 0 012.515-1.134 4.7 4.7 0 011.6.302c.555.21 1.125.53 1.709.959l1.325.082zm4.569-5.267l4.67 4.051-2.459.777-3.651-3.168c-.568-.493-1.101-.832-1.599-1.018-.504-.179-.964-.216-1.378-.11-.43.107-.807.348-1.133.724-.326.376-.509.78-.547 1.212-.053.433.049.883.303 1.35.248.473.657.957 1.224 1.449l3.11 2.698-1.443 1.618-3.884-3.369-.204-1.263c-.611-.621-1.028-1.266-1.248-1.936-.22-.67-.267-1.317-.138-1.942a3.544 3.544 0 01.817-1.658c.486-.56 1.022-.962 1.607-1.204a3.732 3.732 0 011.838-.286c.642.065 1.31.27 2.007.615.69.353 1.392.84 2.108 1.46zm-20.654-21.36l-6.957 4.263c-.532.327-.928.718-1.187 1.174a2.494 2.494 0 00-.342 1.516c.043.557.256 1.148.64 1.773.356.583.77 1.033 1.24 1.352.465.311.937.492 1.415.542a2.02 2.02 0 001.27-.28l1.417 2.31a3.583 3.583 0 01-1.666.506 4.92 4.92 0 01-1.945-.286c-.682-.235-1.337-.612-1.965-1.132-.641-.524-1.212-1.193-1.712-2.009-.602-.983-.966-1.951-1.092-2.904a4.565 4.565 0 01.424-2.7c.4-.841 1.105-1.57 2.113-2.188l6.295-3.857c.45-.276.905-.607 1.367-.993.457-.394.82-.783 1.09-1.166l.2-.122 1.477 2.411c-.196.279-.493.588-.894.925-.409.342-.804.63-1.188.865zm-6.127 3.205l1.608-1.02 1.431 2.336c.403.658.817 1.212 1.242 1.662.416.455.836.793 1.258 1.015.422.222.848.328 1.277.318.42-.006.838-.136 1.255-.392.424-.26.753-.593.985-.999a2.44 2.44 0 00.309-1.374c-.04-.514-.233-1.054-.58-1.62-.434-.708-.967-1.241-1.598-1.598-.631-.358-1.26-.562-1.888-.613-.632-.06-1.16.023-1.583.248l.508-1.668c.385-.156.87-.235 1.452-.237a6.524 6.524 0 011.86.287c.642.19 1.274.501 1.895.934.607.43 1.135 1.011 1.584 1.744.56.916.874 1.829.94 2.74.06.902-.092 1.728-.457 2.479a4.457 4.457 0 01-1.692 1.809c-.724.444-1.448.693-2.17.747a4.34 4.34 0 01-2.137-.375c-.701-.303-1.377-.771-2.028-1.403-.65-.632-1.26-1.41-1.826-2.334l-1.645-2.686zm-6.491-21.519l-.705-2.844 8.44 2.63.706 2.843-8.44-2.629zm-8.593-.207l-1.595-6.426 15.383-3.818.653 2.63-13.25 3.289.942 3.796c.186.749.465 1.328.839 1.739.364.412.772.678 1.224.798.452.119.892.125 1.318.02a2.7 2.7 0 001.134-.599c.33-.293.565-.683.706-1.171.14-.488.127-1.068-.04-1.741l-1.196-4.82 2.161-.536 1.196 4.82c.219.881.295 1.692.227 2.434-.068.741-.251 1.4-.55 1.978a4.42 4.42 0 01-1.225 1.451 4.877 4.877 0 01-1.785.835 4.618 4.618 0 01-1.958.078 4.577 4.577 0 01-1.775-.767c-.551-.396-1.03-.926-1.436-1.59-.418-.671-.742-1.471-.973-2.4zm13.423-36.765l-15.479-3.405.582-2.646 13.305 2.926 1.567-7.125-13.305-2.926.585-2.66 15.48 3.404-2.734 12.432zm.963-14.742l6.71 1.746-.519 2.36-4.592-1.01-.444 2.018-2.174-.479 1.02-4.635zM47.5 77.688c-.55.956-1.211 1.73-1.981 2.324a6.807 6.807 0 01-2.532 1.195 7.102 7.102 0 01-2.838.054c-.983-.172-1.957-.536-2.922-1.092l-.532-.307c-1.117-.644-2.016-1.382-2.697-2.215-.69-.837-1.176-1.714-1.458-2.632a6.65 6.65 0 01-.271-2.727c.101-.9.374-1.734.818-2.504.565-.982 1.222-1.73 1.97-2.246a5.341 5.341 0 012.439-.944c.864-.11 1.77-.04 2.717.214.94.248 1.89.65 2.855 1.206l1.054.608-5.912 10.254-1.916-1.105 4.558-7.906-.178-.103a6.757 6.757 0 00-1.996-.643 3.687 3.687 0 00-2.007.195c-.64.251-1.192.778-1.655 1.582a3.69 3.69 0 00-.506 1.67c-.039.575.069 1.15.324 1.725.254.575.647 1.135 1.18 1.678.532.544 1.212 1.054 2.041 1.532l.533.308c.652.375 1.316.64 1.994.794.674.14 1.327.162 1.959.064a4.424 4.424 0 001.754-.697c.538-.366.992-.87 1.363-1.513.478-.83.713-1.63.707-2.4a6.025 6.025 0 00-.488-2.293l1.95-.77a7.58 7.58 0 01.63 1.869c.143.69.148 1.444.017 2.258-.127.806-.451 1.662-.973 2.567zm12.89-29.522l1.483 1.621-6.18 5.658-1.483-1.62 6.18-5.659zm-10.398.205l10.702 11.69-1.998 1.83-10.703-11.69 1.999-1.83zm7.38-6.756l10.702 11.69-2.01 1.84-10.702-11.69 2.01-1.84zm30.281-2.709l-3.437-7.4c-.263-.567-.606-1.005-1.03-1.314a2.493 2.493 0 00-1.466-.514c-.56-.02-1.17.123-1.835.432-.62.288-1.115.647-1.486 1.078-.362.426-.595.874-.7 1.343a2.02 2.02 0 00.133 1.295l-2.458 1.141a3.57 3.57 0 01-.311-1.713c.031-.628.2-1.261.507-1.899.311-.65.761-1.258 1.35-1.822.593-.577 1.324-1.067 2.192-1.47 1.045-.486 2.048-.737 3.01-.753.97-.02 1.848.224 2.633.732.79.494 1.434 1.278 1.931 2.35l3.11 6.695c.222.478.499.97.83 1.472.34.5.683.905 1.033 1.216l.098.213-2.564 1.19c-.255-.225-.528-.556-.816-.993a10.034 10.034 0 01-.724-1.279zm-2.48-6.455L86 34.166l-2.485 1.154c-.7.325-1.297.672-1.793 1.043-.5.361-.884.739-1.153 1.133-.27.394-.423.805-.461 1.232-.043.418.038.849.244 1.291.21.452.503.817.88 1.094.376.278.82.432 1.33.465.515.019 1.073-.112 1.676-.391.752-.35 1.343-.818 1.77-1.404.428-.586.703-1.188.826-1.805.131-.62.11-1.154-.066-1.6l1.6.694c.11.4.133.89.068 1.47a6.513 6.513 0 01-.498 1.814 6.563 6.563 0 01-1.145 1.776c-.497.554-1.135 1.012-1.915 1.373-.974.453-1.917.66-2.829.62-.903-.043-1.706-.29-2.41-.738a4.459 4.459 0 01-1.604-1.888c-.358-.77-.522-1.518-.492-2.242a4.327 4.327 0 01.617-2.08c.382-.661.924-1.28 1.626-1.853.703-.574 1.546-1.09 2.529-1.546l2.856-1.327z" fill="#000"/><circle cx="120.745" cy="122.83" r="70.5" transform="rotate(10.209 120.745 122.83)" stroke="#E4E4E4"/></svg>